<?xml version="1.0" encoding="utf-8"?>
<svg xmlns="http://www.w3.org/2000/svg" viewBox="0 0 108 108">
  <defs>
    <filter id="circle-shadow" x="-12%" y="-12%" width="124%" height="128%">
      <feDropShadow dx="0" dy="1.5" stdDeviation="2.2" flood-color="#000" flood-opacity=".28"/>
    </filter>
  </defs>
  <circle cx="54" cy="52.5" r="48" fill="#fff" filter="url(#circle-shadow)"/>
  <g transform="translate(25 27.5) scale(.01016 -.01016) translate(-3412 -8765)" fill="#000">
    <path d="M4382 8755c-243-56-420-269-491-593-42-187-52-315-58-711l-6-385-29-50c-46-78-125-238-159-324-157-389-204-846-130-1255 7-40 5-44-35-88-85-93-81-207 10-287 33-29 89-52 129-52 11 0 23-15 34-42 9-24 39-87 66-141 27-54 47-99 45-100-80-41-107-60-126-87-92-136-4-310 157-310 34 0 74 11 130 35l82 35 92-91c153-150 308-260 506-359 202-101 404-166 644-207 92-16 189-18 1027-18 847 0 934 2 1030 18 458 79 849 271 1148 565l93 91 80-35c56-23 96-34 130-34 134 0 229 128 188 251-18 54-56 97-109 124l-49 25 58 122c32 68 60 130 63 138 3 9 29 20 65 28 69 14 114 50 143 114 35 76 20 148-44 216l-42 44 19 112c28 164 27 492-2 676-47 295-154 601-289 824l-42 68v288c0 469-35 779-111 975-104 271-309 430-554 429-233-1-450-119-730-398-72-72-185-194-250-271-65-77-125-148-134-158-16-16-24-16-121-3-328 46-737 46-1080 1-81-11-107-11-116-2-6 7-64 75-130 152-229 270-448 473-619 573-154 90-345 129-483 97zm245-439c129-65 314-236 559-519 202-233 226-258 266-278 52-27 92-27 263-1 367 56 821 53 1173-7 113-20 173-15 224 17 16 10 69 67 119 128 331 397 575 624 735 684 237 88 339-234 333-1050-1-168-1-314 0-326 0-12 21-52 46-90 210-319 329-748 311-1118-7-135-26-279-39-293-4-3-89 0-191 6-164 11-188 10-223-4-92-39-149-142-124-227 33-111 94-147 271-161 69-5 127-11 130-14 6-6-70-150-86-163-7-7-48 4-117 30-115 43-158 48-215 25-92-39-137-129-116-233 9-45 70-111 127-137l48-23-83-65c-266-207-581-328-933-358-86-7-402-9-925-6-859 5-853 4-1073 62-200 53-405 152-571 277-58 43-106 83-106 87 0 5 25 21 56 36 72 35 106 85 112 164 6 89-38 161-120 196-57 23-99 18-213-25-58-22-107-40-110-40-6 0-98 171-93 175 2 2 51 7 108 10 58 3 124 11 146 17 83 20 153 107 154 188 0 48-41 133-76 157-60 41-87 44-282 32-101-6-185-9-188-6-15 15-37 221-38 357-1 185 19 330 71 515 56 202 144 401 236 534 53 78 55 91 49 375-9 491 37 876 122 1018 22 38 44 59 76 76 56 28 98 23 187-22z"/>
    <path d="M5274 6419c-59-17-126-71-158-129l-31-55-3-454c-3-508-2-518 66-593 47-52 102-79 174-85 111-11 209 41 263 138l30 54v470c0 443-1 472-19 505-37 68-68 100-129 130-63 32-128 38-193 19z"/>
    <path d="M7120 6421c-74-23-141-81-174-151-20-43-21-63-24-489-3-490-1-512 58-584 50-60 110-89 194-95 92-6 159 21 216 85 70 79 70 83 70 572 0 266-4 450-10 473-6 20-25 58-43 85-58 86-188 134-287 104z"/>
  </g>
</svg>
